<?xml version="1.0" encoding="utf-8"?>
<!-- Generator: Adobe Illustrator 16.0.0, SVG Export Plug-In . SVG Version: 6.00 Build 0)  -->
<!DOCTYPE svg PUBLIC "-//W3C//DTD SVG 1.1//EN" "http://www.w3.org/Graphics/SVG/1.1/DTD/svg11.dtd">
<svg version="1.1" id="Capa_1" xmlns="http://www.w3.org/2000/svg" xmlns:xlink="http://www.w3.org/1999/xlink" x="0px" y="0px"
	 width="16px" height="16px" viewBox="0 0 16 16" enable-background="new 0 0 16 16" xml:space="preserve">
<path stroke="#FFFFFF" stroke-width="0.5" stroke-miterlimit="10" d="M8,0.497C3.856,0.497,0.497,3.856,0.497,8
	S3.856,15.503,8,15.503c4.144,0,7.503-3.359,7.503-7.503S12.144,0.497,8,0.497z M11.282,7.531c0.26,0,0.469,0.209,0.469,0.469
	s-0.209,0.469-0.469,0.469H5.85l2.013,2.014c0.183,0.183,0.183,0.479,0,0.663c-0.183,0.183-0.48,0.183-0.663,0L4.386,8.332
	c-0.183-0.183-0.183-0.48,0-0.663L7.2,4.855c0.183-0.183,0.48-0.183,0.663,0s0.183,0.48,0,0.663L5.85,7.531H11.282z"/>
</svg>
